HIERARCHY
ROOT Hip
{
	OFFSET -0.185302 0.232817 0.209342
	CHANNELS 6 Xposition Yposition Zposition Xrotation Yrotation Zrotation
	JOINT LowerSpine
	{
		OFFSET 0.030879 0.124146 0.273504
		CHANNELS 6 Xposition Yposition Zposition Xrotation Yrotation Zrotation
		JOINT MiddleSpine
		{
			OFFSET -0.002226 -0.034937 0.234436
			CHANNELS 3 Xrotation Yrotation Zrotation
			JOINT Chest
			{
				OFFSET 0.011735 0.027408 0.297308
				CHANNELS 3 Xrotation Yrotation Zrotation
				JOINT Neck
				{
					OFFSET 0.002471 -0.055115 0.658027
					CHANNELS 6 Xposition Yposition Zposition Xrotation Yrotation Zrotation
					JOINT Head
					{
						OFFSET -0.020279 -0.136772 0.360792
						CHANNELS 3 Xrotation Yrotation Zrotation
						End Site
						{
							OFFSET -0.000319 -0.007005 0.053106
						}
					}
				}
				JOINT LClavicle
				{
					OFFSET 0.019498 -0.268241 0.613039
					CHANNELS 6 Xposition Yposition Zposition Xrotation Yrotation Zrotation
					JOINT LShoulder
					{
						OFFSET 0.372955 0.065134 0.098526
						CHANNELS 3 Xrotation Yrotation Zrotation
						JOINT LForearm
						{
							OFFSET 0.811904 -0.157243 -0.019025
							CHANNELS 3 Xrotation Yrotation Zrotation
							JOINT LHand
							{
								OFFSET 0.676930 -0.133427 -0.011631
								CHANNELS 3 Xrotation Yrotation Zrotation
								JOINT LFinger1
								{
									OFFSET 0.247187 -0.127978 0.010424
									CHANNELS 6 Xposition Yposition Zposition Xrotation Yrotation Zrotation
									JOINT LFinger11
									{
										OFFSET 0.094491 -0.034597 -0.028058
										CHANNELS 3 Xrotation Yrotation Zrotation
										JOINT LFinger12
										{
											OFFSET 0.064506 -0.023622 -0.019159
											CHANNELS 3 Xrotation Yrotation Zrotation
											End Site
											{
												OFFSET 0.048051 -0.016567 -0.016913
											}
										}
									}
								}
								JOINT LFinger2
								{
									OFFSET 0.264655 -0.063040 0.020704
									CHANNELS 6 Xposition Yposition Zposition Xrotation Yrotation Zrotation
									JOINT LFinger21
									{
										OFFSET 0.121336 -0.023925 -0.002100
										CHANNELS 3 Xrotation Yrotation Zrotation
										JOINT LFinger22
										{
											OFFSET 0.067260 -0.013252 -0.001144
											CHANNELS 3 Xrotation Yrotation Zrotation
											End Site
											{
												OFFSET 0.052341 -0.010313 -0.004847
											}
										}
									}
								}
								JOINT LFinger3
								{
									OFFSET 0.264210 0.006321 0.018767
									CHANNELS 6 Xposition Yposition Zposition Xrotation Yrotation Zrotation
									JOINT LFinger31
									{
										OFFSET 0.111374 -0.014896 -0.007234
										CHANNELS 3 Xrotation Yrotation Zrotation
										JOINT LFinger32
										{
											OFFSET 0.063470 -0.008478 -0.004101
											CHANNELS 3 Xrotation Yrotation Zrotation
											End Site
											{
												OFFSET 0.052538 -0.007451 -0.007325
											}
										}
									}
								}
								JOINT LFinger4
								{
									OFFSET 0.254900 0.056810 -0.012424
									CHANNELS 6 Xposition Yposition Zposition Xrotation Yrotation Zrotation
									JOINT LFinger41
									{
										OFFSET 0.071450 0.006309 -0.013827
										CHANNELS 3 Xrotation Yrotation Zrotation
										JOINT LFinger42
										{
											OFFSET 0.052397 0.004633 -0.010123
											CHANNELS 3 Xrotation Yrotation Zrotation
											End Site
											{
												OFFSET 0.051728 0.002658 -0.013657
											}
										}
									}
								}
								JOINT LFinger0
								{
									OFFSET 0.045822 -0.047626 -0.046962
									CHANNELS 6 Xposition Yposition Zposition Xrotation Yrotation Zrotation
									JOINT LFinger01
									{
										OFFSET 0.085397 -0.092742 -0.043486
										CHANNELS 3 Xrotation Yrotation Zrotation
										JOINT LFinger02
										{
											OFFSET 0.056687 -0.058653 -0.030394
											CHANNELS 3 Xrotation Yrotation Zrotation
											End Site
											{
												OFFSET 0.035836 -0.035346 -0.018326
											}
										}
									}
								}
							}
						}
					}
				}
				JOINT RClavicle
				{
					OFFSET -0.098059 -0.244374 0.615480
					CHANNELS 6 Xposition Yposition Zposition Xrotation Yrotation Zrotation
					JOINT RShoulder
					{
						OFFSET -0.313877 0.204587 0.112802
						CHANNELS 3 Xrotation Yrotation Zrotation
						JOINT RForearm
						{
							OFFSET -0.809038 0.171814 0.014622
							CHANNELS 3 Xrotation Yrotation Zrotation
							JOINT RHand
							{
								OFFSET -0.675278 0.141076 0.016438
								CHANNELS 3 Xrotation Yrotation Zrotation
								JOINT RFinger1
								{
									OFFSET -0.276891 -0.021588 0.021306
									CHANNELS 6 Xposition Yposition Zposition Xrotation Yrotation Zrotation
									JOINT RFinger11
									{
										OFFSET -0.101540 0.005198 -0.023989
										CHANNELS 3 Xrotation Yrotation Zrotation
										JOINT RFinger12
										{
											OFFSET -0.069320 0.003545 -0.016384
											CHANNELS 3 Xrotation Yrotation Zrotation
											End Site
											{
												OFFSET -0.051340 0.003610 -0.014850
											}
										}
									}
								}
								JOINT RFinger2
								{
									OFFSET -0.267242 0.044936 0.031748
									CHANNELS 6 Xposition Yposition Zposition Xrotation Yrotation Zrotation
									JOINT RFinger21
									{
										OFFSET -0.121046 0.025280 0.002931
										CHANNELS 3 Xrotation Yrotation Zrotation
										JOINT RFinger22
										{
											OFFSET -0.067092 0.014025 0.001645
											CHANNELS 3 Xrotation Yrotation Zrotation
											End Site
											{
												OFFSET -0.052369 0.010943 -0.002674
											}
										}
									}
								}
								JOINT RFinger3
								{
									OFFSET -0.239874 0.108652 0.029231
									CHANNELS 6 Xposition Yposition Zposition Xrotation Yrotation Zrotation
									JOINT RFinger31
									{
										OFFSET -0.108564 0.029752 -0.002669
										CHANNELS 3 Xrotation Yrotation Zrotation
										JOINT RFinger32
										{
											OFFSET -0.061863 0.016965 -0.001499
											CHANNELS 3 Xrotation Yrotation Zrotation
											End Site
											{
												OFFSET -0.051533 0.013675 -0.005165
											}
										}
									}
								}
								JOINT RFinger4
								{
									OFFSET -0.212872 0.151769 -0.002714
									CHANNELS 6 Xposition Yposition Zposition Xrotation Yrotation Zrotation
									JOINT RFinger41
									{
										OFFSET -0.063830 0.033771 -0.011017
										CHANNELS 3 Xrotation Yrotation Zrotation
										JOINT RFinger42
										{
											OFFSET -0.046806 0.024771 -0.008061
											CHANNELS 3 Xrotation Yrotation Zrotation
											End Site
											{
												OFFSET -0.047101 0.022720 -0.011605
											}
										}
									}
								}
								JOINT RFinger0
								{
									OFFSET -0.062593 -0.025615 -0.044709
									CHANNELS 6 Xposition Yposition Zposition Xrotation Yrotation Zrotation
									JOINT RFinger01
									{
										OFFSET -0.116451 -0.051768 -0.039302
										CHANNELS 3 Xrotation Yrotation Zrotation
										JOINT RFinger02
										{
											OFFSET -0.076225 -0.031671 -0.027633
											CHANNELS 3 Xrotation Yrotation Zrotation
											End Site
											{
												OFFSET -0.047478 -0.018433 -0.016597
											}
										}
									}
								}
							}
						}
					}
				}
			}
		}
	}
	JOINT RThigh
	{
		OFFSET -0.295545 0.073616 0.125420
		CHANNELS 6 Xposition Yposition Zposition Xrotation Yrotation Zrotation
		JOINT RShin
		{
			OFFSET -0.021761 0.127221 -1.200518
			CHANNELS 3 Xrotation Yrotation Zrotation
			JOINT RFoot
			{
				OFFSET 0.000000 0.120585 -1.179281
				CHANNELS 3 Xrotation Yrotation Zrotation
				JOINT RToe
				{
					OFFSET -0.054474 -0.252312 -0.156769
					CHANNELS 3 Xrotation Yrotation Zrotation
					End Site
					{
						OFFSET -0.010710 -0.052213 -0.005339
					}
				}
			}
		}
	}
	JOINT LThigh
	{
		OFFSET 0.305603 -0.048418 0.112950
		CHANNELS 6 Xposition Yposition Zposition Xrotation Yrotation Zrotation
		JOINT LShin
		{
			OFFSET 0.021764 0.118386 -1.201430
			CHANNELS 3 Xrotation Yrotation Zrotation
			JOINT LFoot
			{
				OFFSET -0.000000 0.120585 -1.179281
				CHANNELS 3 Xrotation Yrotation Zrotation
				JOINT LToe
				{
					OFFSET -0.054475 -0.252314 -0.156769
					CHANNELS 3 Xrotation Yrotation Zrotation
					End Site
					{
						OFFSET -0.010710 -0.052213 -0.005339
					}
				}
			}
		}
	}
}
MOTION
Frames: 5
Frame Time: 0.041667
1.907622 -1.446715 2.257187 7.674392 -3.429029 306.734916 0.030879 0.124146 0.273504 0.000001 0.000005 0.000002 -2.096250 0.026798 1.528063 -6.944285 -0.543296 5.160775 0.002471 -0.055115 0.658028 -3.933033 2.200448 0.698933 -2.364262 -1.650868 -0.270717 0.019498 -0.268240 0.613039 -7.609510 12.017807 2.292528 51.295332 55.267896 -11.090716 0.002486 0.136144 -1.328992 0.003698 0.088391 -0.698009 0.247187 -0.127977 0.010424 -0.000001 -0.000003 -0.000005 -0.000009 0.000007 -0.000014 0.000002 -0.000007 -0.000003 0.264655 -0.063040 0.020704 -0.000003 -0.000002 0.000004 -0.000001 0.000003 -0.000001 -0.000001 -0.000001 -0.000003 0.264210 0.006321 0.018767 -0.000000 -0.000003 0.000000 -0.000002 0.000000 -0.000003 -0.000001 0.000007 -0.000002 0.254900 0.056811 -0.012424 -0.000003 -0.000000 -0.000001 0.000002 -0.000004 0.000002 -0.000007 0.000003 0.000002 0.045822 -0.047625 -0.046962 -0.000004 0.000001 -0.000003 0.000003 0.000014 -0.000016 -0.000004 0.000013 -0.000014 -0.098059 -0.244373 0.615480 5.552468 25.902874 -4.820017 6.827461 -63.559008 3.394743 0.146459 -1.126954 10.990106 0.000080 0.000039 -0.000095 -0.276891 -0.021588 0.021306 -0.000000 -0.000011 0.000004 0.000003 0.000004 -0.000002 -0.000003 -0.000008 -0.000006 -0.267242 0.044937 0.031748 0.000001 -0.000002 0.000001 0.000000 0.000006 -0.000004 -0.000000 0.000007 -0.000008 -0.239874 0.108652 0.029231 -0.000003 -0.000002 -0.000002 0.000004 0.000003 0.000003 0.000001 -0.000002 -0.000006 -0.212872 0.151769 -0.002714 0.000004 -0.000003 -0.000001 -0.000000 0.000002 -0.000008 -0.000004 -0.000003 -0.000004 -0.062594 -0.025614 -0.044708 0.000001 -0.000004 -0.000000 -0.000001 -0.000005 0.000008 0.000006 -0.000002 -0.000002 -0.292991 0.076735 0.149315 -14.232911 19.455557 -16.389768 36.174068 -7.067558 1.536207 -0.025563 0.214038 -0.344911 -13.268517 2.634661 0.582978 0.317181 -0.031718 0.252913 -11.853808 3.711044 3.047186 -0.864987 0.175422 0.019295 -0.087830 1.047073 -1.649575 0.000003 0.000040 -0.000009 
1.907549 -1.480984 2.253328 7.744686 -2.811666 308.992485 0.030880 0.124146 0.273504 -0.000001 0.000007 0.000002 -2.145237 -0.011980 1.550925 -7.024364 -1.188482 5.285946 0.002470 -0.055115 0.658027 -3.582933 2.452550 0.815177 -2.173631 -1.253738 -0.205043 0.019497 -0.268240 0.613039 -7.627905 12.097858 2.309071 55.747178 55.213829 -15.569216 -0.000338 0.080223 -0.781414 0.003701 0.088391 -0.698010 0.247187 -0.127978 0.010424 -0.000001 -0.000005 -0.000004 -0.000012 0.000005 -0.000013 0.000002 -0.000008 -0.000004 0.264655 -0.063041 0.020703 0.000002 -0.000003 0.000006 -0.000002 0.000002 -0.000002 0.000001 -0.000001 -0.000002 0.264209 0.006321 0.018767 -0.000000 -0.000004 0.000000 0.000003 -0.000001 0.000001 0.000000 0.000007 0.000002 0.254900 0.056810 -0.012424 -0.000002 0.000001 0.000002 0.000001 -0.000005 0.000001 0.000002 -0.000000 0.000001 0.045822 -0.047626 -0.046962 -0.000007 0.000002 -0.000001 -0.000004 0.000013 -0.000010 -0.000004 0.000009 -0.000007 -0.098059 -0.244374 0.615480 5.552756 25.895656 -4.844185 14.703101 -59.783225 14.433791 0.097008 -0.904263 8.804292 0.000082 0.000030 -0.000086 -0.276891 -0.021588 0.021305 -0.000003 -0.000008 0.000005 0.000003 -0.000001 -0.000004 -0.000002 -0.000010 -0.000003 -0.267242 0.044937 0.031748 -0.000001 0.000000 0.000001 -0.000004 0.000002 -0.000003 0.000002 0.000004 -0.000014 -0.239873 0.108652 0.029231 -0.000001 -0.000000 0.000000 0.000002 0.000004 -0.000002 -0.000001 -0.000002 -0.000004 -0.212872 0.151769 -0.002714 -0.000002 -0.000002 0.000003 -0.000001 0.000009 -0.000010 -0.000006 -0.000008 -0.000003 -0.062593 -0.025615 -0.044708 0.000006 -0.000005 0.000002 0.000000 -0.000004 0.000002 0.000004 -0.000004 0.000004 -0.292987 0.076753 0.149456 -17.379695 18.604254 -16.178305 37.678025 -7.326918 1.693830 -0.264421 0.645476 -0.943407 -11.633533 2.318767 0.478459 0.317203 -0.031563 0.253498 -10.848349 4.301351 3.049712 -1.247189 0.252842 0.028651 0.128688 1.064049 -1.755136 0.000001 0.000041 -0.000011 
1.910883 -1.504276 2.249207 7.792640 -2.328233 310.593236 0.030880 0.124146 0.273504 0.000001 0.000006 -0.000000 -2.124293 -0.100045 1.574399 -6.856568 -1.815938 5.347102 0.002470 -0.055115 0.658027 -3.677072 2.659889 0.898568 -1.906065 -0.941731 -0.154840 0.019497 -0.268241 0.613039 -7.633004 12.109966 2.311524 58.580880 55.397943 -18.722597 -0.002871 0.014966 -0.140383 0.003697 0.088393 -0.698011 0.247187 -0.127977 0.010425 0.000002 -0.000004 -0.000008 -0.000009 0.000004 -0.000015 0.000003 -0.000006 -0.000006 0.264655 -0.063040 0.020704 -0.000002 -0.000001 0.000002 -0.000005 0.000003 -0.000003 -0.000001 0.000000 -0.000003 0.264210 0.006321 0.018767 0.000002 -0.000003 -0.000000 0.000000 -0.000000 -0.000002 -0.000001 0.000007 -0.000006 0.254900 0.056810 -0.012424 -0.000001 0.000002 -0.000001 0.000004 -0.000005 0.000002 0.000000 0.000003 0.000000 0.045822 -0.047626 -0.046962 0.000001 0.000003 -0.000005 0.000003 0.000010 -0.000015 -0.000009 0.000015 -0.000012 -0.098059 -0.244374 0.615480 5.551664 25.878168 -4.894095 18.153837 -56.368557 22.695059 0.052386 -0.652523 6.349650 0.000078 0.000035 -0.000090 -0.276890 -0.021588 0.021306 0.000004 -0.000007 0.000004 0.000002 -0.000006 -0.000001 -0.000006 -0.000006 0.000001 -0.267242 0.044937 0.031748 0.000002 0.000005 0.000004 0.000001 0.000002 -0.000003 0.000002 0.000010 -0.000001 -0.239874 0.108652 0.029231 0.000001 0.000002 0.000000 -0.000001 0.000005 0.000005 0.000001 -0.000003 -0.000007 -0.212872 0.151769 -0.002714 0.000002 -0.000001 0.000001 0.000002 0.000006 -0.000009 -0.000011 -0.000005 -0.000005 -0.062593 -0.025615 -0.044708 0.000008 0.000001 0.000001 0.000005 -0.000002 0.000008 0.000005 -0.000004 -0.000001 -0.292983 0.076773 0.149610 -21.014627 17.399367 -15.964789 38.974364 -7.546903 1.835098 -0.123338 0.962097 -1.495414 -10.097495 2.019226 0.388492 0.317223 -0.031415 0.254053 -10.005462 4.642020 2.963173 -1.820382 0.368828 0.043666 0.429785 0.949559 -1.687655 0.000005 0.000038 -0.000006 
1.915233 -1.519420 2.245255 7.707400 -2.092956 311.783519 0.030880 0.124146 0.273504 0.000001 0.000007 0.000003 -2.099010 -0.184434 1.597432 -6.714192 -2.117447 5.367853 0.002470 -0.055115 0.658027 -3.762051 2.878172 0.987197 -1.721358 -0.699791 -0.117275 0.019498 -0.268240 0.613039 -7.640020 12.141740 2.318190 61.032829 55.459671 -21.414427 -0.004932 -0.064806 0.644089 0.003703 0.088392 -0.698009 0.247186 -0.127978 0.010424 -0.000000 -0.000006 -0.000006 -0.000013 0.000007 -0.000016 0.000003 -0.000006 -0.000004 0.264655 -0.063040 0.020704 0.000001 -0.000003 0.000003 -0.000001 0.000001 0.000000 -0.000001 -0.000001 -0.000001 0.264209 0.006321 0.018767 -0.000002 -0.000003 0.000000 0.000003 0.000001 -0.000003 0.000000 0.000008 -0.000001 0.254900 0.056810 -0.012424 -0.000005 0.000002 0.000001 -0.000001 -0.000004 0.000001 -0.000003 0.000002 0.000001 0.045822 -0.047626 -0.046962 -0.000000 -0.000003 -0.000003 -0.000001 0.000015 -0.000020 -0.000007 0.000015 -0.000015 -0.098059 -0.244373 0.615480 5.551123 25.872927 -4.908128 22.141778 -53.345765 32.269126 0.022858 -0.383722 3.727494 0.000077 0.000039 -0.000079 -0.276890 -0.021588 0.021306 0.000003 -0.000007 -0.000002 0.000003 0.000002 0.000002 -0.000001 -0.000008 -0.000003 -0.267242 0.044937 0.031747 0.000005 -0.000001 0.000001 -0.000001 0.000000 -0.000004 0.000000 0.000008 -0.000008 -0.239873 0.108652 0.029231 0.000001 0.000002 -0.000002 0.000002 0.000001 -0.000002 -0.000001 -0.000000 -0.000002 -0.212871 0.151770 -0.002714 0.000001 -0.000002 -0.000001 0.000000 -0.000000 -0.000008 -0.000010 -0.000006 -0.000003 -0.062593 -0.025614 -0.044708 0.000008 -0.000001 -0.000003 -0.000001 -0.000000 0.000006 -0.000003 -0.000005 -0.000000 -0.292979 0.076796 0.149779 -24.968528 16.050977 -15.782844 40.270020 -7.763348 1.981209 0.331877 1.107388 -1.904025 -8.956062 1.795036 0.326842 0.317242 -0.031276 0.254579 -9.406077 4.996303 2.885318 -2.340091 0.473848 0.058265 0.674868 0.901553 -1.706831 0.000005 0.000040 -0.000006 
1.918103 -1.528098 2.242028 7.623925 -1.965502 312.567215 0.030880 0.124146 0.273504 0.000001 0.000006 0.000006 -2.069979 -0.263971 1.620432 -6.603713 -2.242526 5.410617 0.002471 -0.055115 0.658027 -3.841079 3.122796 1.087481 -1.616488 -0.532216 -0.090945 0.019498 -0.268240 0.613040 -7.643977 12.163209 2.322740 62.945493 55.575538 -23.294828 -0.005652 -0.114379 1.134413 0.003701 0.088392 -0.698009 0.247186 -0.127978 0.010425 -0.000001 -0.000003 -0.000007 -0.000012 0.000007 -0.000014 0.000003 -0.000006 -0.000000 0.264655 -0.063040 0.020704 -0.000003 -0.000002 0.000004 -0.000004 0.000002 -0.000002 0.000003 -0.000000 -0.000002 0.264209 0.006321 0.018767 0.000001 -0.000005 -0.000001 0.000002 0.000000 -0.000001 -0.000002 0.000007 -0.000002 0.254900 0.056810 -0.012424 -0.000002 0.000001 -0.000001 0.000002 -0.000008 0.000007 0.000002 -0.000000 -0.000002 0.045822 -0.047626 -0.046962 -0.000004 0.000003 -0.000003 -0.000002 0.000015 -0.000015 -0.000007 0.000013 -0.000012 -0.098059 -0.244374 0.615481 5.551585 25.888398 -4.861484 25.784828 -50.232681 41.902374 0.007971 -0.176090 1.708614 0.000074 0.000037 -0.000080 -0.276890 -0.021588 0.021306 0.000002 -0.000004 0.000007 0.000004 -0.000001 0.000002 -0.000003 -0.000013 -0.000000 -0.267241 0.044937 0.031748 0.000002 0.000001 0.000007 -0.000002 0.000002 -0.000006 0.000002 0.000012 -0.000006 -0.239874 0.108652 0.029231 -0.000001 0.000003 0.000002 0.000003 0.000003 0.000008 -0.000001 -0.000001 -0.000003 -0.212871 0.151769 -0.002714 0.000001 -0.000002 0.000001 0.000000 0.000002 -0.000015 -0.000010 -0.000007 -0.000005 -0.062593 -0.025614 -0.044708 0.000007 -0.000002 0.000005 0.000001 0.000000 0.000003 0.000004 0.000000 0.000005 -0.292975 0.076820 0.149963 -29.180142 14.421272 -15.733177 41.863531 -8.024695 2.167529 0.742618 1.225841 -2.255326 -8.084880 1.623078 0.282798 0.317260 -0.031144 0.255075 -9.094995 5.224629 2.795674 -2.566158 0.519486 0.064920 0.705343 0.955885 -1.805194 0.000008 0.000037 -0.000009 
